<?xml version="1.0" standalone="no"?>
<!DOCTYPE svg PUBLIC "-//W3C//DTD SVG 20010904//EN"
 "http://www.w3.org/TR/2001/REC-SVG-20010904/DTD/svg10.dtd">
<svg version="1.0" xmlns="http://www.w3.org/2000/svg"
 width="1024.000000pt" height="1024.000000pt" viewBox="0 0 1024.000000 1024.000000"
 preserveAspectRatio="xMidYMid meet">

<g transform="translate(0.000000,1024.000000) scale(0.100000,-0.100000)"
fill="#000000" stroke="none">
<path d="M4980 8129 c-130 -13 -365 -72 -495 -124 -471 -186 -831 -522 -1051
-980 -70 -145 -119 -295 -140 -425 -14 -92 -20 -108 -45 -132 l-29 -28 -178 0
c-142 0 -193 -4 -259 -20 -209 -50 -375 -185 -473 -385 -52 -105 -70 -177 -77
-310 -6 -129 10 -224 56 -321 91 -195 238 -331 433 -402 l73 -27 422 -3 c353
-3 427 -1 456 12 44 18 7 -37 781 1141 59 91 122 175 140 188 30 21 38 22 289
22 l259 0 29 -33 c16 -18 29 -43 29 -56 0 -14 -52 -103 -122 -209 -68 -102
-199 -303 -293 -446 -93 -144 -228 -350 -300 -459 -71 -109 -177 -271 -235
-361 -58 -89 -196 -300 -307 -469 -112 -169 -203 -313 -203 -320 0 -7 11 -24
25 -37 l24 -25 688 0 c606 0 691 -2 711 -16 47 -33 47 -44 -3 -222 -141 -500
-300 -1061 -330 -1162 -18 -63 -68 -233 -110 -377 -83 -284 -85 -303 -33 -333
20 -11 32 -12 51 -3 14 7 80 92 159 205 74 106 223 319 330 473 107 154 316
453 463 665 148 212 326 468 396 570 362 526 456 664 474 696 l20 35 -28 25
-28 24 -728 0 -728 0 -21 23 c-12 13 -22 32 -22 43 0 11 148 240 329 509 181
270 441 656 576 858 225 336 250 370 288 388 37 16 67 19 235 19 211 0 244 -7
276 -55 10 -15 18 -46 18 -70 1 -37 -9 -59 -75 -161 -42 -66 -132 -207 -201
-314 -68 -107 -193 -300 -277 -429 -167 -255 -175 -275 -125 -318 l27 -23 678
0 c642 0 682 1 755 20 212 54 383 193 476 385 57 120 75 200 74 335 -1 100 -5
127 -31 208 -41 124 -100 220 -192 312 -84 85 -163 134 -286 176 -74 26 -94
28 -276 32 -252 5 -239 -3 -274 178 -28 148 -50 218 -104 345 -329 762 -1154
1254 -1961 1168z"/>
</g>
</svg>
